C:\GBW_MyPrograms\KinderuniversiteitApp\Resultaten\Ellis\Mars\Mars_v1.mot
version=1
nRows=11
nColumns=29
inDegrees=yes
endheader
                time	         pelvis_tilt	           pelvis_tx	           pelvis_ty	       hip_flexion_l	       hip_flexion_r	        knee_angle_l	        knee_angle_r	       ankle_angle_l	       ankle_angle_r	    lumbar_extension	hamstrings_r/activation	bifemsh_r/activation	glut_max_r/activation	iliopsoas_r/activation	rect_fem_r/activation	  vasti_r/activation	gastroc_r/activation	 soleus_r/activation	tib_ant_r/activation	hamstrings_l/activation	bifemsh_l/activation	glut_max_l/activation	iliopsoas_l/activation	rect_fem_l/activation	  vasti_l/activation	gastroc_l/activation	 soleus_l/activation	tib_ant_l/activation	
          1.11790392	         -4.79330109	          1.46736170	          1.00437707	         37.82994819	          8.71693540	        -29.68905318	        -46.17678541	        -22.79917591	          2.66165605	        -11.53294242	          0.05214637	          0.58153058	          0.05047936	          0.83929032	          0.99167210	          0.44496589	          0.25087231	          0.21396609	          0.94555928	          0.24801438	          0.71879296	          0.47019515	          0.85106241	          0.82078515	          0.50630151	          0.97280739	          0.78965155	          0.13030820	
          1.12908295	         -4.85173764	          1.47602311	          1.01411446	         37.17185175	         11.96996566	        -28.85946745	        -47.05963895	        -25.47035393	          2.74927104	        -12.73790841	          0.05544818	          0.49048503	          0.05129578	          0.70772126	          0.99154285	          0.68188974	          0.21163754	          0.31151967	          0.96871285	          0.28903267	          0.83332721	          0.39778827	          0.91192934	          0.69941327	          0.42728622	          0.83387973	          0.66686283	          0.20512146	
          1.14026199	         -5.02718702	          1.48439690	          1.02293586	         36.71060499	         14.71590424	        -28.32516282	        -46.84495494	        -27.36387837	          2.66400560	        -13.91681559	          0.05059653	          0.41363976	          0.45632412	          0.59675320	          0.94839577	          0.81768343	          0.17850053	          0.26277470	          0.98202481	          0.26600996	          0.89604687	          0.33685042	          0.94703780	          0.61005603	          0.36075578	          0.70667258	          0.56295888	          0.19183476	
          1.15144103	         -5.31756035	          1.49381146	          1.03071015	         36.30314085	         16.30908088	        -28.08552009	        -44.90796775	        -28.15067281	          2.88026322	        -14.84258655	          0.05022131	          0.34887178	          0.68841815	          0.50323084	          0.81671292	          0.89546474	          0.17971025	          0.22154850	          0.98958894	          0.48411892	          0.88097595	          0.28892605	          0.83898626	          0.51985954	          0.30552540	          0.59804071	          0.47537002	          0.26864421	
          1.16262007	         -5.68395447	          1.50493673	          1.03736907	         35.88224821	         16.59722951	        -28.32699721	        -41.85708068	        -27.66888457	          2.47661031	        -15.42151340	          0.45525637	          0.29481557	          0.82109148	          0.42581214	          0.82800117	          0.77573612	          0.27901817	          0.55373708	          0.83429333	          0.41272550	          0.76973325	          0.32522062	          0.78607837	          0.70512292	          0.34996919	          0.76584284	          0.69256233	          0.22860901	
          1.17379911	         -5.98371693	          1.51782736	          1.04328174	         35.07506918	         15.76839825	        -28.10146498	        -38.67683225	        -26.92705826	          1.20894928	        -15.78418014	          0.38488520	          0.59533974	          0.69247164	          0.67008485	          0.82679810	          0.65418254	          0.58667891	          0.74420604	          0.70331883	          0.45920945	          0.66492731	          0.41825750	          0.67158273	          0.69053929	          0.62396778	          0.86380199	          0.82260576	          0.19402703	
          1.18497815	         -6.31016227	          1.53154950	          1.04866664	         33.94670713	         14.62712419	        -27.06281924	        -36.06470051	        -26.73100910	         -0.05988216	        -15.95450766	          0.63437390	          0.76321662	          0.58541549	          0.80669984	          0.70917917	          0.55189067	          0.49620806	          0.62801516	          0.82935614	          0.56098611	          0.71406287	          0.36708818	          0.78865490	          0.61970645	          0.52797343	          0.91095969	          0.89217049	          0.17056828	
          1.19615719	         -6.75047083	          1.54517739	          1.05341548	         32.92251048	         13.72046105	        -25.98747363	        -33.64980713	        -26.54134047	         -0.80406818	        -15.96496223	          0.75402021	          0.85521752	          0.49576697	          0.88136728	          0.61306111	          0.46586813	          0.42038204	          0.53024023	          0.90137152	          0.66342028	          0.76368498	          0.32571844	          0.85199185	          0.56180230	          0.44712877	          0.92624537	          0.92429321	          0.15658365	
          1.20733623	         -7.27434935	          1.55836429	          1.05733118	         32.26755935	         13.30286214	        -25.34829823	        -31.50619441	        -26.40471237	         -1.07933524	        -15.88113406	          0.71459366	          0.90356833	          0.42105625	          0.91056420	          0.53670602	          0.39352129	          0.36114449	          0.44842671	          0.94232711	          0.77470586	          0.79250509	          0.30629082	          0.84429862	          0.50701277	          0.37976047	          0.92184818	          0.92703455	          0.15220002	
          1.21851527	         -7.86464622	          1.57125107	          1.06022860	         32.07046767	         13.50125732	        -25.36339751	        -29.86791456	        -26.22998827	         -1.55423512	        -15.66691955	          0.61575783	          0.91304198	          0.35793303	          0.92529508	          0.49002118	          0.33265966	          0.63176912	          0.38002386	          0.81412500	          0.84063416	          0.79565241	          0.31300358	          0.79498830	          0.46153271	          0.32428369	          0.91854570	          0.92001444	          0.14451420	
          1.22969431	         -8.45061030	          1.58418120	          1.06208597	         32.23147190	         14.28733338	        -26.04629433	        -29.12544260	        -25.91510271	         -1.88672488	        -15.32734342	          0.52397348	          0.91550401	          0.30486815	          0.93393536	          0.47259717	          0.28118893	          0.53307787	          0.32161978	          0.89212224	          0.87633283	          0.79070177	          0.33509721	          0.73403337	          0.42398092	          0.27900540	          0.91244278	          0.90231583	          0.13805018	
